<svg xmlns="http://www.w3.org/2000/svg" width="512" height="512" viewBox="0 0 512 512"><defs><linearGradient id="bg" x1="0%" x2="100%" y1="0%" y2="100%"><stop offset="0%" style="stop-color:#0a0a1a"/><stop offset="100%" style="stop-color:#0d1117"/></linearGradient><linearGradient id="brain" x1="0%" x2="100%" y1="0%" y2="100%"><stop offset="0%" style="stop-color:#00d4ff"/><stop offset="50%" style="stop-color:#7c3aed"/><stop offset="100%" style="stop-color:#f472b6"/></linearGradient><linearGradient id="textGrad" x1="0%" x2="100%" y1="0%" y2="0%"><stop offset="0%" style="stop-color:#00d4ff"/><stop offset="100%" style="stop-color:#7c3aed"/></linearGradient><filter id="glow"><feGaussianBlur result="blur" stdDeviation="3"/><feMerge><feMergeNode in="blur"/><feMergeNode in="SourceGraphic"/></feMerge></filter></defs><rect width="512" height="512" fill="url(#bg)" rx="40"/><g fill="none" stroke="#00d4ff" stroke-width="1" opacity=".08"><line x1="30" x2="120" y1="120" y2="120"/><circle cx="120" cy="120" r="3" fill="#00d4ff"/><line x1="120" x2="120" y1="120" y2="200"/><circle cx="120" cy="200" r="3" fill="#00d4ff"/><line x1="120" x2="200" y1="200" y2="200"/><line x1="400" x2="480" y1="300" y2="300"/><circle cx="400" cy="300" r="3" fill="#00d4ff"/><line x1="320" x2="400" y1="380" y2="380"/><circle cx="320" cy="380" r="3" fill="#00d4ff"/><line x1="320" x2="320" y1="300" y2="380"/></g><g opacity=".12"><circle cx="60" cy="200" r="4" fill="#7c3aed"/><circle cx="60" cy="250" r="4" fill="#7c3aed"/><circle cx="60" cy="300" r="4" fill="#7c3aed"/><line x1="64" x2="90" y1="200" y2="220" stroke="#7c3aed" stroke-width="1"/><line x1="64" x2="90" y1="250" y2="240" stroke="#7c3aed" stroke-width="1"/><line x1="64" x2="90" y1="300" y2="260" stroke="#7c3aed" stroke-width="1"/></g><g filter="url(#glow)" transform="translate(256, 175)"><path fill="none" stroke="url(#brain)" stroke-linecap="round" stroke-linejoin="round" stroke-width="4.5" d="M-55,-20 C-55,-55 -30,-75 0,-75 C15,-75 25,-68 30,-60 C45,-65 55,-50 55,-20 C55,10 40,30 25,40 C35,50 40,65 35,75 C30,80 20,78 15,72 C10,85 0,88 -10,85 C-15,78 -20,80 -25,72 C-30,78 -40,80 -45,75 C-50,65 -45,50 -35,40 C-50,30 -65,10 -55,-20 Z"/><path fill="none" stroke="url(#brain)" stroke-linecap="round" stroke-width="2.5" d="M-40,-10 C-30,-15 -20,-10 -15,-5" opacity=".5"/><path fill="none" stroke="url(#brain)" stroke-linecap="round" stroke-width="2.5" d="M-35,10 C-25,5 -15,8 -8,3" opacity=".5"/><path fill="none" stroke="url(#brain)" stroke-linecap="round" stroke-width="2.5" d="M15,-5 C20,-10 30,-15 40,-10" opacity=".5"/><path fill="none" stroke="url(#brain)" stroke-linecap="round" stroke-width="2.5" d="M8,3 C15,8 25,5 35,10" opacity=".5"/></g><g filter="url(#glow)"><line x1="200" x2="170" y1="165" y2="135" stroke="#00d4ff" stroke-width="2" opacity=".5"/><circle cx="165" cy="130" r="3.5" fill="#00d4ff" opacity=".9"/><line x1="210" x2="180" y1="195" y2="220" stroke="#7c3aed" stroke-width="2" opacity=".5"/><circle cx="175" cy="225" r="3.5" fill="#7c3aed" opacity=".9"/><line x1="310" x2="345" y1="170" y2="138" stroke="#f472b6" stroke-width="2" opacity=".5"/><circle cx="348" cy="133" r="3.5" fill="#f472b6" opacity=".9"/><line x1="315" x2="348" y1="198" y2="222" stroke="#00d4ff" stroke-width="2" opacity=".5"/><circle cx="352" cy="226" r="3.5" fill="#00d4ff" opacity=".9"/></g><g opacity=".12" transform="translate(345, 285)"><rect width="44" height="36" x="-22" y="-18" fill="none" stroke="#00d4ff" stroke-width="2" rx="4"/><line x1="-22" x2="-28" y1="-6" y2="-6" stroke="#00d4ff" stroke-width="1.5"/><line x1="-22" x2="-28" y1="0" y2="0" stroke="#00d4ff" stroke-width="1.5"/><line x1="-22" x2="-28" y1="6" y2="6" stroke="#00d4ff" stroke-width="1.5"/><line x1="22" x2="28" y1="-6" y2="-6" stroke="#00d4ff" stroke-width="1.5"/><line x1="22" x2="28" y1="0" y2="0" stroke="#00d4ff" stroke-width="1.5"/><line x1="22" x2="28" y1="6" y2="6" stroke="#00d4ff" stroke-width="1.5"/></g><text x="256" y="340" fill="url(#textGrad)" filter="url(#glow)" font-family="'Segoe UI', 'Inter', -apple-system, sans-serif" font-size="52" font-weight="800" letter-spacing="8" text-anchor="middle">NEURO</text><text x="256" y="388" fill="#94a3b8" font-family="'Segoe UI', 'Inter', -apple-system, sans-serif" font-size="36" font-weight="300" letter-spacing="22" text-anchor="middle">CUDA</text><line x1="120" x2="392" y1="410" y2="410" stroke="url(#textGrad)" stroke-width="1" opacity=".2"/><text x="256" y="440" fill="#64748b" font-family="'Segoe UI', 'Inter', -apple-system, sans-serif" font-size="14" font-weight="400" letter-spacing="5" text-anchor="middle">ANN → SNN COMPILER</text><text x="256" y="472" fill="#475569" font-family="'Segoe UI', 'Inter', -apple-system, sans-serif" font-size="11" font-weight="300" letter-spacing="3" text-anchor="middle">QUANTARACORE TECHNOLOGIES</text></svg>